<?xml version="1.0" encoding="utf-8"?>
<!-- Generator: Adobe Illustrator 22.1.0, SVG Export Plug-In . SVG Version: 6.00 Build 0)  -->
<svg version="1.1" id="Layer_1" xmlns="http://www.w3.org/2000/svg" xmlns:xlink="http://www.w3.org/1999/xlink" x="0px" y="0px"
	 viewBox="0 0 560.6 115.6" style="enable-background:new 0 0 560.6 115.6;" xml:space="preserve">
<g>
	<path d="M55.8,113.8L66,13.7c0.6-5.1,1.6-6,3.3-6h1V2H53.8v5.7h1c2.3,0,3.4,1.6,3.1,6l-5.8,59.9l-6.7-59.9c-0.6-4.7,0.6-6,3.1-6
		h0.3V2H26v5.7h1.1c2.1,0,2.1,0.9,2.6,6l1.7,15.3l-5.3,48.5l-6-63.8c-0.7-5.1,0.3-6,2.6-6H23V2H-0.1v5.7h1.1c2.4,0,2.6,0.9,3.1,6
		l10.3,100.1h14.8l5.8-51.5l6,51.5H55.8z M152.1,48.2c0-7,0-9.4,4.4-9.4c3,0,3,1.1,3,7v59.8c0,2.1-0.7,2.6-1.9,2.6H157v5.7h23v-5.7
		h-1c-1.6,0-2-0.6-2-2.9V42.6c0-10.3-2.1-14.3-12.3-14.3c-5.8,0-10.1,1.9-12.8,8.3c-1.1-5.7-4.1-8.3-12-8.3c-6.4,0-9.8,2-12.4,8.3
		v-8.3l-19.7,1.6v5.7h0.9c1.3,0,2.3,1,2.3,4.1v65c0,2.6-0.6,3.3-2.3,3.3h-0.9v5.7h22v-5.7h-0.9c-1.1,0-1.4-0.4-1.4-2.1V48.2
		c0-7-0.1-9.4,4.3-9.4c3,0,3,1.1,3,7v59.8c0,2.1-0.7,2.6-1.7,2.6h-1v5.7h22.5v-5.7h-0.3c-1.6,0-2.1-0.6-2.1-2.9V48.2z M309.6,113.8
		h27.5v-5.7h-1.9c-2.4,0-3.1-1-3.1-6V59h14.6v43.1c0,5-0.7,6-3,6h-2.1v5.7H369v-5.7h-2.3c-2.4,0-2.9-1-2.9-6V13.7c0-5.1,0.4-6,2.9-6
		h2.3V2h-27.4v5.7h2.1c2.3,0,3,0.9,3,6v38.7h-14.6V13.7c0-5.1,0.7-6,3.1-6h1.9V2h-27.5v5.7h2.4c2.3,0,3,0.9,3,6V105
		c0,2.4-0.7,3.1-3,3.1h-2.4V113.8z M512.6,113.8h21.8v-5.7h-0.7c-1.4,0-1.6-0.4-1.6-2.1V48.2c0-7,0.1-9.4,4.6-9.4
		c3.3,0,3.3,1.1,3.3,7v59.8c0,2.1-0.6,2.6-1.6,2.6h-1v5.7h23.1v-5.7h-1c-1.6,0-1.9-0.6-1.9-2.9V42.6c0-10.3-2.6-14.3-12.6-14.3
		c-6.6,0-10.3,2-13,8.3V0.2l-21,1.7v5.7h2.1c1.4,0,2.3,0.9,2.3,4v93.2c0,2.6-0.4,3.3-2.3,3.3h-0.7V113.8z M85.7,114.8
		c18.3,0,20.8-15.3,20.8-43.2c0-28.1-2.7-43.2-20.8-43.2c-18.1,0-20.8,15.1-20.8,43.2C64.8,99.5,67.4,114.8,85.7,114.8L85.7,114.8z
		 M221.9,113.8h22v-5.7h-1c-1.3,0-1.3-0.4-1.3-2.1V48.2c0-7,0-9.4,4.6-9.4c3.1,0,3.3,1.1,3.3,7v59.8c0,2.1-0.9,2.6-1.7,2.6h-1v5.7
		h23.1v-5.7h-1c-1.6,0-2-0.6-2-2.9V42.6c0-10.3-2.4-14.3-12.6-14.3c-6.4,0-10.3,2-12.7,8.3v-8.3l-21.1,1.6v5.7h2.3
		c1.3,0,2.3,1,2.3,4.1v65c0,2.6-0.6,3.3-2.3,3.3h-0.9V113.8z M421.3,114.8c7.6,0,10.4-3.7,12-8.1c1.4,6.6,3,8.1,11.6,8.1
		c10,0,11.3-6,11.1-17.7h-4.7c0,8.4-0.1,9.3-1.7,9.3c-1.4,0-1.4-0.7-1.4-5.4V45.5c0-11.3-3.7-17.1-16.8-17.1
		c-10.4,0-20.7,3.1-20.1,14.4c0.3,5.1,2.3,10.6,7.7,10.3c5-0.3,7.3-3,7.3-7.1c0-2.9-2.1-7.6-5.6-10.1c1.3-0.6,3.3-1.1,6.6-1.1
		c3.7,0,4.4,2.9,4.4,8.3v15.5c-19,6.4-23,9-23,32.8C408.6,108.4,412.8,114.8,421.3,114.8L421.3,114.8z M388.7,114.8
		c14.1,0,17.4-4.3,16.7-27.7h-5.8c0,18.5-0.6,20-7.1,20c-7.8,0-7.8-3.4-7.8-35.2v-2.6h22.8c0-32.1-3.6-40.9-18.7-40.9
		c-13.7,0-20.8,8.4-20.8,43.8C367.8,105.8,373.2,114.9,388.7,114.8L388.7,114.8z M202.1,114.8c13.8,0,17.7-4.3,17.1-27.7h-5.8
		c0,18.5-0.9,20-7.6,20c-8.4,0-8-3.4-8-35.2v-2.6h22.1c0-32.1-3-40.9-17.8-40.9c-13.8,0-21,8.4-21,43.8
		C181.1,105.8,186.5,114.9,202.1,114.8L202.1,114.8z M457.1,113.8H480v-5.7h-1.7c-1.4,0-2-0.7-2-3V0.2L455,2v5.7h2.4
		c1.4,0,2,0.6,2,2.9v94.9c0,2.1-0.1,2.7-1.1,2.7h-1.1V113.8z M293.5,114.8c10.4,0,15.8-6.8,15.8-17.1c0-24.1-21.8-38.1-21.8-55.4
		c0-5.3,1.9-6.8,5.6-6.8c5.4,0,6.3,2.3,7.3,10.4l0.9,8h6.3V29.1h-5c-0.3,3.1-1,4.3-1.3,3.9c-1.6-1.9-5.3-4.6-11.4-4.6
		c-9.1,0-17.1,4.1-17.1,17.7c0,21.1,21.7,37.2,21.7,53.4c0,7-1.6,8.1-6.6,8.1c-5,0-6.3-2.3-7.3-12.8l-0.7-7h-6.6v26.1h5.7
		c0.4-2.9,1.4-4.7,2.3-3.9C283.1,112.1,285.1,114.8,293.5,114.8L293.5,114.8z M484.2,96.1c0,13.6,2,18.7,15.4,18.7
		c9.4,0,11.6-3.7,11.6-14.1V86.6h-5.7v14.8c0,5-0.4,5.6-2.3,5.6c-1.9,0-2.3-0.6-2.3-5V35.5h10.4v-6.4h-10.3V7.7h-5.8
		c-4.1,19-7.7,21.4-13.3,21.4h-1.6v6.3h3.8V96.1z M85.7,107.5c-4,0-4-2.3-4-35.9c0-33.8,0-36.1,4-36.1c4,0,4,2.3,4,36.1
		C89.6,105.4,89.6,107.5,85.7,107.5L85.7,107.5z M270.8,32.6c14.3-10.6,17.1-18.5,12.4-25.8c-2.6-4-8.4-6.6-12.7-3
		c-5.1,4.3-3.9,11.7,5.7,16c-1.7,2-5.7,5.8-9,9.1L270.8,32.6z M428.2,104.8c-3.4,0-3.4-3.6-3.4-14.8c0-20.5,0-23.3,6.8-27v35.2
		C431.6,103.5,430.9,104.8,428.2,104.8L428.2,104.8z M197.8,63.3c0.3-26.7,0.7-28,4.4-28c3.6,0,3.3,1.4,3.3,28H197.8z M384.5,63.3
		c0.4-26.7,0.7-28,4.4-28c3.7,0,3.1,1.4,3.1,28H384.5z"/>
</g>
<g>
	<path d="M580.4,286.5c0.8,0,1.4,0.6,1.4,1.4c0,0.8-0.6,1.4-1.4,1.4c-0.8,0-1.4-0.6-1.4-1.4C579,287.1,579.6,286.5,580.4,286.5
		L580.4,286.5z M580.4,286.7c-0.6,0-1.1,0.5-1.1,1.2c0,0.7,0.5,1.2,1.1,1.2c0.6,0,1.1-0.5,1.1-1.2
		C581.6,287.2,581.1,286.7,580.4,286.7L580.4,286.7z M580.2,288.7h-0.3v-1.6c0.1,0,0.3,0,0.4,0c0.2,0,0.4,0.1,0.5,0.1
		c0.1,0.1,0.1,0.2,0.1,0.3c0,0.2-0.1,0.3-0.3,0.4v0c0.1,0,0.2,0.2,0.3,0.4c0,0.2,0.1,0.3,0.1,0.4h-0.3c0-0.1-0.1-0.2-0.1-0.4
		c0-0.2-0.1-0.3-0.3-0.3h-0.2V288.7z M580.2,287.9h0.2c0.2,0,0.4-0.1,0.4-0.3c0-0.1-0.1-0.3-0.4-0.3c-0.1,0-0.1,0-0.2,0V287.9z"/>
</g>
</svg>
